<?xml version="1.0" encoding="UTF-8"?>
<svg xmlns="http://www.w3.org/2000/svg" xmlns:xlink="http://www.w3.org/1999/xlink" viewBox="0 0 1000 1000">
  <defs>
    <style>
      .cls-1 {
        fill: #f64f2e;
      }

      .cls-1, .cls-2, .cls-3, .cls-4, .cls-5, .cls-6, .cls-7, .cls-8, .cls-9, .cls-10, .cls-11, .cls-12, .cls-13 {
        stroke-miterlimit: 10;
      }

      .cls-1, .cls-2, .cls-3, .cls-4, .cls-5, .cls-6, .cls-7, .cls-8, .cls-9, .cls-10, .cls-11, .cls-13 {
        stroke: #000;
      }

      .cls-1, .cls-3, .cls-4, .cls-5, .cls-6, .cls-7, .cls-10, .cls-11, .cls-13 {
        stroke-width: 7px;
      }

      .cls-2, .cls-6 {
        fill: #fff;
      }

      .cls-2, .cls-8, .cls-9, .cls-12 {
        stroke-width: 24px;
      }

      .cls-3 {
        fill: #3d5ed8;
      }

      .cls-4 {
        fill: #aaff5c;
      }

      .cls-5 {
        fill: #f6ff2e;
      }

      .cls-7 {
        fill: #ff73f5;
      }

      .cls-8 {
        fill: #3fd6ff;
      }

      .cls-9 {
        fill: url(#Unbenannter_Verlauf_402);
      }

      .cls-10 {
        fill: #ff00de;
      }

      .cls-12 {
        stroke: #fff;
      }

      .cls-13 {
        fill: #00e796;
      }
    </style>
    <radialGradient id="Unbenannter_Verlauf_402" data-name="Unbenannter Verlauf 402" cx="497.27" cy="128.35" fx="497.27" fy="128.35" r="67.32" gradientUnits="userSpaceOnUse">
      <stop offset=".01" stop-color="#fff"/>
      <stop offset=".1" stop-color="ivory"/>
      <stop offset=".28" stop-color="#ffffc9"/>
      <stop offset=".53" stop-color="#ffff8a"/>
      <stop offset=".83" stop-color="#ffff34"/>
      <stop offset="1" stop-color="#ff0"/>
    </radialGradient>
  </defs>
  <g id="Background">
    <polygon class="cls-8" points="320.98 95.84 238.51 82.68 119.84 157 52.48 296.35 15.81 382.29 36.2 507.24 15.81 575.06 36.2 612.23 15.81 697.09 45.52 772.75 57.59 931.82 101.26 953.65 256.74 968.71 436.79 968.71 497.27 944.35 693.7 968.71 851.45 983.84 976.82 922.22 961.39 825.9 942.03 666.17 974.56 633.93 961.39 523.34 986.71 424.76 916.48 257.84 836.39 82.68 693.7 82.68 460.4 22.79 320.98 95.84"/>
    <polygon id="BG_01" class="cls-12" points="133.62 705 123.22 739.32 173.18 788.94 171.2 798.85 142.57 817.17 83.82 793.95 101.13 854.71 60.89 903.41 124.03 905.72 157.92 959.04 173.18 914.91 281.88 903.48 283.85 920.11 279.78 936.67 263.83 942.69 278.31 951.68 279.12 968.71 292.15 957.72 307.54 961.93 302.16 946.43 311.52 932.18 294.51 933.42 283.85 920.11 281.88 903.48 317.76 899.71 402.24 927.68 470.29 895.35 544.51 909.83 552.82 939.27 631.29 918.8 655.64 968.71 680.74 917.66 721.99 912.48 736.24 968.71 770.75 924.84 826.45 928.39 795.39 882.02 824.75 888.87 833.61 881.94 852.27 900.94 871.71 923.06 864.51 951.62 891.56 939.97 916.49 955.64 913.76 926.32 936.38 907.44 907.64 900.98 896.63 873.9 881.65 898.97 852.27 900.94 833.61 881.94 894.25 834.55 848.73 676.9 875.94 700.88 880.38 716.1 906.1 730.24 909.04 759.43 930.42 739.34 959.1 745.57 946.6 719.02 961.39 693.67 931.97 698.94 912.74 675.46 907.24 704.29 880.38 716.1 875.94 700.88 881.99 643.57 932.64 616.06 880 592.59 869.49 535.92 862.13 544.08 837.58 456.63 885.56 432.35 864.09 390.63 877.6 328.57 936.38 304.51 881.52 272.49 876.8 209.15 852.28 231.02 811.16 182.98 790.47 191.46 758.96 173.07 754.24 109.73 706.84 152.01 646.29 139.54 670.7 195.07 653.22 222.41 554.03 137.6 480.91 198.41 385.26 148.67 294.99 173.11 304.1 150.95 245.77 166.71 199.72 127.6 196.69 187.94 145.26 219.64 201.71 241.18 215.97 299.89 253.89 252.86 297.1 256.14 317.76 285.06 123.22 369.77 163.29 455.54 151.22 461.82 96.46 432.71 103.81 495.93 56.34 541.78 121.6 551.56 150.53 610.87 159.91 598.78 153.63 638.98 133.62 705 111.32 695.56 103.58 665.93 123.6 642.75 93.02 640.96 77.16 614.76 66.01 643.28 36.2 650.27 59.88 669.69 57.31 700.2 83.09 683.68 111.32 695.56 133.62 705"/>
    <path id="Wolke_01" class="cls-2" d="m344.89,56.33c-2.09-19.33-32.8-27.08-47.77-19.33-6.19-21.68-81.03-16-94.64,0-13.23-13.94-82.91-17.55-93.49,0-16.77-7.23-61.16,24.52-56,52.13-30.97,7.48-35.1,88.26-22.97,106.58-21.94,12.65-15.74,83.35,0,95.23-16.77,16-.6,66.44,10.06,84.65,16.77,28.65-26.32,91.87,11.88,117.31,15.99-87.89,85.15-54.86,73.28-112.15,30.86-10.18,52.13-72.77,37.16-89.03,18.06.26,46.45-53.94,30.19-72,30.19-3.1,38.45-24.26,38.96-49.39,28.91,19.46,95.5-1.7,99.74-26.03,24.14,11.43,37.05-65.48,106.72-77.09-40.07-32.09-63.72,6.43-93.14-10.86Z"/>
    <path id="Wolke_02" class="cls-2" d="m647.74,56.33c2.09-19.33,32.8-27.08,47.77-19.33,6.19-21.68,81.03-16,94.64,0,13.23-13.94,82.91-17.55,93.49,0,16.77-7.23,61.16,24.52,56,52.13,30.97,7.48,35.1,88.26,22.97,106.58,21.94,12.65,15.74,83.35,0,95.23,16.77,16,.6,66.44-10.06,84.65-16.77,28.65,26.32,91.87-11.88,117.31-15.99-87.89-85.15-54.86-73.28-112.15-30.86-10.18-52.13-72.77-37.16-89.03-18.06.26-46.45-53.94-30.19-72-30.19-3.1-38.45-24.26-38.96-49.39-28.91,19.46-95.5-1.7-99.74-26.03-24.14,11.43-37.05-65.48-106.72-77.09,40.07-32.09,63.72,6.43,93.14-10.86Z"/>
    <circle id="BG_02" class="cls-9" cx="497.27" cy="128.35" r="67.32"/>
  </g>
  <g id="Monster_004_Sipleshape_X00">
    <path id="Monster_004_Simpleshape_03" data-name="Monster 004 Simpleshape 03" class="cls-13" d="m391.98,325.38c-106.37-8.14-95.7,79.6-95.7,79.6,0,0-18.43-70.59-87.86-74.61-17.67,79.93,60.01,94.27,60.01,94.27,0,0-7.3,5.43-17.05,15.47-.03.03,7.1,9.92,15.96,1.26,2.17,10.31,11.59,3.7,14.2.69,1.39,5.73,10.19,6.66,15.5-.28,4.51,3.49,9.27,6.75,14.26-.48,6.94,8.94,13.25,5.71,16.04-.89,3.45,2.97,10.46,5.43,12.76-3.42,5.79,2.65,11.53.41,11.53.41,0,0-4.23,2.12-11.53-.41.28,6.01-5.6,12.5-12.76,3.42-.34,12.36-10.99,11.88-16.04.89-2.53,8.8-10.44,9.35-14.26.48-4.98,7.99-13.72,10.1-15.5.28-5.26,8.26-14.06,8.94-14.2-.69-9.63,9.35-16.77-.41-16.81-.37-19.02,19.84-46.58,56.71-48.04,104.89.06,3.14,5.05,6.55,11.06,9.22.06.03,18.07-20.27,18.07-20.27l-17.66-23.75,17.66,23.75s-14.45,16.24-18.07,20.27c58.98,27.24,118.37,22.85,147.58,16.02.31-.07-32.28-32.81-32.28-32.81l43.01-20.89-43.01,20.89s32.22,32.83,32.28,32.81c6-1.38,11.53-3.32,12.97-4.35-9.01,5.66-71.54,18.91-133.57-.75-4.35,5.95-9.64,15.68-12.4,21.39,1.3,4.72,3.24,14.58,16.96,3.94-3.07,13.51,9.32,19.05,18.02,6.45,9.72,20.27,15.36,14.85,21.7,1.61,5.85,20.2,15.78,12.01,18.86,1.67,11.36,23.14,19.77,5.32,20.79-1.03,5.84,11.98,13.42,7.88,14.85-3.17,7.37,10.86,16.59,10.86,16.15-5.24,9.25,9.33,17.74,16.51,17.18-2.76,6.31,5.04,21.35,11.59,12.44-6.85,1.33,2.62,8.09,3.28,8.4,3.28-.38,0-3.89.99-8.4-3.28,4.92,12.5,1.43,14.85-12.44,6.85-1.17,13.13-5.99,13.23-17.18,2.76,1.16,16.71-10.72,13.12-16.15,5.24-3.07,12.19-9.42,11.36-14.85,3.17-6.15,15.98-13.11,14.54-20.79,1.03-1.64,6.15-11.27,18.23-18.86-1.67-6.54,14.06-14.53,10.89-21.7-1.61-10.14,10.24-18.23,7.16-18.13-6.15-9.32,7.88-16.8-4.36-16.86-4.24-2.44,5.65-4.16,11.15-5.2,16.49-22.17,18.72-22.55,45.78-13.43,58.88.14.19,1.48-.68,1.48-.68,0,0-.81,1.6-.69,1.77,2.38,3.04,5.32,5.17,8.64,6.09.29.07,1.41-1.35,1.41-1.35,0,0-.24,1.63-.1,1.65,5.83,1.01,12.69-1.7,19.64-9.83-4.2-4.26-21.85-20.75-16.93-54.13-4.93,32.4,11.06,54.82,36.86,68.33-16.54,17.16-13.98,30.19-4.52,37.22.18.14.96-1.1.96-1.1,0,0-.13,1.69.02,1.79,4.54,3.04,10.43,4.8,16.52,5.13.24.01,1.15-1.8,1.15-1.8,0,0,.02,1.85.24,1.85,15.83.26,32.32-9.26,29.15-31.65-26.11.2-43.52-11.44-43.52-11.44,0,0,17.26,11.69,43.52,11.44,2.37-.02,6.81.05,9.64-.04,16.89.5,40.74-10.24,40.74-10.24,0,0-23.89,10.74-40.74,10.24-8.31,22.51,3.4,33.22,17.78,34.95.19.02.35-1.14.35-1.14,0,0,.5,1.24.65,1.25,6,.54,12.38-.45,17.93-2.78.16-.06.25-1.41.25-1.41,0,0,.55,1.06.71.98,13.99-6.39,21.97-21.52,3.08-42.08,10.1-4.8,18.46-11.44,23.86-19.83-3.17-4.4-9.94-17.2-11.27-42.8,2.05,36.94,14.59,51.88,26.42,52.57.21.01.4-2.01.4-2.01,0,0,.86,2.03,1.16,2.02,2.69-.13,5.31-.98,7.73-2.48.13-.08.04-1.31.04-1.31,0,0,.59.91.71.83,16.93-11.52,23.28-54.56-28.7-95.99,11.47-8.19,36.45-21.1,37.06-28.26,4.92-80.55-88.27-117.96-88.27-117.96,0,0,57.53-19.74,69.08-95.16v-.04Z"/>
    <ellipse id="Monster_004_Simpleshape_02" data-name="Monster 004 Simpleshape 02" class="cls-6" cx="279.75" cy="507.24" rx="41.23" ry="36.87"/>
    <path id="Monster_004_Simpleshape_01" data-name="Monster 004 Simpleshape 01" class="cls-11" d="m274.43,494.67c7.32,0,13.25,6.42,13.25,14.34s-5.93,14.34-13.25,14.34c-7.32,0-13.25-6.42-13.25-14.34,0-7.92,5.93-14.34,13.25-14.34Z"/>
  </g>
  <g id="Monster_004_Sipleshape_X01">
    <path id="Monster_004_Simpleshape_03-2" data-name="Monster 004 Simpleshape 03" class="cls-4" d="m608.2,275.89c13.91,90.82,83.19,114.59,83.19,114.59,0,0-112.21,45.04-106.28,142.04.74,8.63,30.82,24.17,44.63,34.03-62.58,49.89-54.94,101.71-34.55,115.59.14.1.85-.99.85-.99,0,0-.1,1.48.05,1.58,2.92,1.8,6.08,2.83,9.31,2.98.37.01,1.4-2.43,1.4-2.43,0,0,.23,2.43.48,2.42,14.24-.83,29.34-18.82,31.81-63.3-1.61,30.82-9.75,46.24-13.57,51.54,6.5,10.1,16.56,18.09,28.73,23.88-22.74,24.76-13.14,42.98,3.71,50.67.19.09.85-1.18.85-1.18,0,0,.11,1.62.31,1.69,6.69,2.8,14.37,4,21.6,3.35.18-.01.78-1.5.78-1.5,0,0,.19,1.4.42,1.38,17.31-2.08,31.41-14.98,21.4-42.08-20.28.6-49.05-12.33-49.05-12.33,0,0,28.72,12.93,49.05,12.33,3.4.11,8.75.03,11.61.05,31.62.31,52.4-13.77,52.4-13.77,0,0-20.96,14.01-52.4,13.77-3.82,26.96,16.04,38.43,35.1,38.11.27,0,.29-2.23.29-2.23,0,0,1.1,2.18,1.39,2.17,7.33-.39,14.42-2.52,19.89-6.18.18-.11.03-2.15.03-2.15,0,0,.94,1.49,1.16,1.33,11.39-8.47,14.47-24.16-5.44-44.82,31.08-16.27,50.33-43.27,44.39-82.28,5.92,40.2-15.33,60.05-20.39,65.18,8.37,9.78,16.63,13.05,23.65,11.84.18-.03-.11-1.99-.11-1.99,0,0,1.35,1.72,1.69,1.63,4-1.11,7.54-3.68,10.41-7.34.15-.2-.83-2.13-.83-2.13,0,0,1.62,1.04,1.78.82,10.98-15.77,10.52-48.36-16.17-70.9-1.25-6.42-3.31-13.05-6.26-19.85-.06-.14-9.07,14.6-20.3,5.11.13,16.03-9.62,19.74-21.83,7.4-8.64,15.05-18.26,18.87-26.13,1.94-9.14,23.97-20.73,9.42-22.7,2.01-9.25,16.27-17.63,18-25.04-1.24-6.54,9.86-14.18,10.86-17.88-3.82-6.54,9.49-20.84,13.81-19.44-6.31-13.48,12.6-19.28,12.49-20.69-3.33-16.7,9.63-20.91,6.8-14.98-8.24-5.43,5.15-9.66,3.95-10.12,3.95.37,0,8.51-.79,10.12-3.95-10.73,22.19,7.39,14.31,14.98,8.24-.68,23.2,9.56,14.56,20.69,3.33-.54,19.38,10.56,19.38,19.44,6.31,1.72,13.31,10.84,18.24,17.88,3.82,1.24,7.64,11.35,29.1,25.04,1.24,3.71,12.45,15.66,22.31,22.7-2.01,7.63,15.94,14.42,22.47,26.13-1.94,10.47,15.16,25.39,8.5,21.7-7.77,16.52,12.82,18.86.94,20.42-4.74-3.33-6.88-9.7-18.6-14.93-25.76-74.7,23.67-149.99,7.72-160.84.9,1.73,1.24,8.4,3.58,15.62,5.24.08.03,38.87-39.51,38.87-39.51l-51.79-25.15,51.79,25.15s-39.24,39.42-38.87,39.51c35.18,8.23,106.69,13.51,177.71-19.29-4.36-4.85-21.76-24.41-21.76-24.41l21.26-28.6-21.26,28.6s21.68,24.45,21.76,24.41c7.24-3.21,13.24-7.31,13.31-11.1-1.76-58.01-34.94-102.41-57.84-126.3-.05-.05-8.65,11.71-20.25.45-.17,11.59-10.77,10.78-17.1.83-2.14,11.84-12.66,9.29-18.67-.33-4.6,10.69-14.13,10.03-17.17-.57-6.08,13.24-18.91,13.81-19.32-1.07-8.63,10.93-15.7,3.12-15.37-4.12-8.79,3.05-13.89.5-13.89.5,0,0,6.92,2.69,13.89-.5,2.76,10.65,11.21,7.7,15.37,4.12,3.36,7.95,10.96,11.84,19.32,1.07,6.01,8.7,11.75,4.78,17.17.57,6.4,8.35,17,7.24,18.67.33,3.15,3.63,14.49,11.58,17.1-.83,10.66,10.43,19.25-1.48,19.21-1.52-11.73-12.09-20.53-18.63-20.53-18.63,0,0,93.54-17.26,72.27-113.51-83.61,4.84-105.8,89.84-105.8,89.84,0,0,12.84-105.65-115.24-95.85v.05Z"/>
    <ellipse id="Monster_004_Simpleshape_02-2" data-name="Monster 004 Simpleshape 02" class="cls-6" cx="743.35" cy="494.82" rx="49.65" ry="44.4"/>
    <ellipse id="Monster_004_Simpleshape_01-2" data-name="Monster 004 Simpleshape 01" class="cls-11" cx="749.76" cy="496.95" rx="15.95" ry="17.26"/>
  </g>
  <g id="Monster_004_Sipleshape_X02">
    <path id="Monster_004_Simpleshape_03-3" data-name="Monster 004 Simpleshape 03" class="cls-3" d="m603.11,179.49c-135.25-10.35-121.69,101.21-121.69,101.21,0,0-23.44-89.75-111.72-94.86-22.47,101.63,76.31,119.86,76.31,119.86,0,0-9.28,6.9-21.67,19.67-.04.04,9.03,12.62,20.29,1.6,2.76,13.1,14.73,4.71,18.06.87,1.76,7.29,12.96,8.46,19.71-.35,5.73,4.44,11.79,8.58,18.14-.61,8.83,11.37,16.84,7.27,20.4-1.13,4.39,3.78,13.31,6.9,16.23-4.35,7.36,3.36,14.66.52,14.66.52,0,0-5.38,2.69-14.66-.52.35,7.64-7.12,15.89-16.23,4.35-.43,15.71-13.98,15.11-20.4,1.13-3.22,11.19-13.28,11.89-18.14.61-6.34,10.16-17.45,12.85-19.71.35-6.69,10.51-17.88,11.37-18.06-.87-12.24,11.89-21.32-.52-21.38-.47-24.19,25.23-59.22,72.11-61.08,133.37.08,4,6.42,8.33,14.06,11.72.08.04,22.98-25.78,22.98-25.78l-22.45-30.2,22.45,30.2s-18.38,20.65-22.98,25.78c74.99,34.63,150.51,29.06,187.65,20.37.39-.09-41.05-41.72-41.05-41.72l54.69-26.56-54.69,26.56s40.97,41.75,41.05,41.72c7.63-1.75,14.66-4.22,16.49-5.53-11.46,7.2-90.96,24.04-169.84-.96-5.53,7.56-12.26,19.94-15.77,27.2,1.65,6,4.12,18.54,21.57,5-3.9,17.18,11.85,24.22,22.91,8.21,12.36,25.78,19.53,18.88,27.59,2.05,7.44,25.68,20.06,15.27,23.97,2.13,14.45,29.42,25.13,6.77,26.44-1.3,7.43,15.23,17.06,10.02,18.88-4.04,9.38,13.8,21.1,13.8,20.53-6.66,11.76,11.87,22.56,20.99,21.85-3.51,8.02,6.4,27.15,14.73,15.82-8.7,1.7,3.34,10.29,4.17,10.68,4.17-.48,0-4.95,1.26-10.68-4.17,6.26,15.89,1.82,18.88-15.82,8.7-1.49,16.7-7.61,16.82-21.85,3.51,1.48,21.24-13.63,16.68-20.53,6.66-3.9,15.5-11.97,14.45-18.88,4.04-7.82,20.32-16.67,18.49-26.44,1.3-2.09,7.82-14.33,23.18-23.97-2.13-8.31,17.88-18.47,13.84-27.59-2.05-12.89,13.02-23.18,9.11-23.05-7.82-11.85,10.02-21.36-5.54-21.43-5.4-3.11,7.18-5.29,14.18-6.61,20.96-28.19,23.8-28.67,58.21-17.07,74.87.17.24,1.88-.86,1.88-.86,0,0-1.04,2.03-.87,2.25,3.03,3.86,6.77,6.58,10.99,7.75.36.09,1.79-1.72,1.79-1.72,0,0-.31,2.07-.12,2.1,7.41,1.28,16.13-2.17,24.97-12.5-5.34-5.42-27.78-26.38-21.53-68.83-6.27,41.2,14.06,69.7,46.87,86.88-21.03,21.82-17.77,38.38-5.74,47.33.23.17,1.22-1.4,1.22-1.4,0,0-.16,2.15.03,2.27,5.77,3.86,13.27,6.11,21,6.53.31.01,1.47-2.29,1.47-2.29,0,0,.03,2.35.31,2.35,20.13.34,41.1-11.77,37.07-40.24-33.2.26-55.34-14.54-55.34-14.54,0,0,21.94,14.87,55.34,14.54,3.01-.03,8.66.07,12.26-.05,21.47.63,51.8-13.02,51.8-13.02,0,0-30.38,13.66-51.8,13.02-10.56,28.62,4.32,42.25,22.6,44.44.24.03.44-1.45.44-1.45,0,0,.63,1.57.82,1.59,7.63.69,15.74-.58,22.8-3.54.2-.08.32-1.79.32-1.79,0,0,.7,1.35.9,1.25,17.79-8.13,27.93-27.37,3.92-53.51,12.85-6.11,23.48-14.54,30.34-25.21-4.04-5.6-12.63-21.88-14.33-54.42,2.61,46.97,18.55,65.96,33.59,66.84.27.01.51-2.56.51-2.56,0,0,1.09,2.58,1.48,2.57,3.42-.16,6.75-1.25,9.83-3.15.16-.11.05-1.67.05-1.67,0,0,.75,1.16.9,1.05,21.53-14.65,29.6-69.37-36.49-122.05,14.58-10.41,46.35-26.83,47.13-35.94,6.26-102.42-112.23-149.98-112.23-149.98,0,0,73.15-25.1,87.84-121v-.05Z"/>
    <ellipse id="Monster_004_Simpleshape_02-3" data-name="Monster 004 Simpleshape 02" class="cls-6" cx="460.4" cy="410.72" rx="52.43" ry="46.89"/>
    <ellipse id="Monster_004_Simpleshape_01-3" data-name="Monster 004 Simpleshape 01" cx="453.64" cy="412.97" rx="16.84" ry="18.23"/>
  </g>
  <g id="Monster_004_Sipleshape_X03">
    <path id="Monster_004_Simpleshape_03-4" data-name="Monster 004 Simpleshape 03" class="cls-10" d="m588.48,613.52c18.23,53,66.99,59.68,66.99,59.68,0,0-70.78,39.33-57.29,96.91,1.34,5.1,23.03,11.13,33.25,15.54-37.05,36.81-26.84,67.08-11.82,73.17.1.05.47-.69.47-.69,0,0,.08.9.19.94,2.13.76,4.35,1.03,6.53.77.25-.03.7-1.61.7-1.61,0,0,.39,1.44.56,1.4,9.46-2.06,17.82-14.51,15.11-41.48,1.95,18.68-2,28.82-4.04,32.42,5.35,5.35,12.87,9.05,21.6,11.19-12.81,17.35-4.59,27.24,7.46,30.01.14.03.46-.8.46-.8,0,0,.24.96.37.98,4.76.95,10.02.83,14.8-.35.12-.03.37-.99.37-.99,0,0,.27.82.42.78,11.4-3.14,19.58-12.43,10.22-27.61-13.53,2.58-34.08-2.03-34.08-2.03,0,0,20.51,4.62,34.08,2.03,2.29-.3,5.87-.94,7.78-1.24,21.22-3.28,33.77-14.01,33.77-14.01,0,0-12.67,10.71-33.77,14.01.08,16.6,14.52,21.31,27.26,19.03.18-.03-.02-1.37-.02-1.37,0,0,.95,1.19,1.14,1.15,4.87-1.04,9.42-3.09,12.72-5.89.11-.09-.19-1.3-.19-1.3,0,0,.78.79.91.67,6.8-6.33,7.33-16.09-8.04-26.31,19.23-13.17,29.48-31.49,21.68-54.26,7.91,23.48-4.38,37.73-7.27,41.36,6.57,4.96,12.42,6.01,17.01,4.52.12-.03-.27-1.18-.27-1.18,0,0,1.07.88,1.3.79,2.57-1.1,4.69-3.04,6.26-5.55.08-.14-.76-1.19-.76-1.19,0,0,1.19.45,1.28.29,5.81-10.67,2.31-30.19-17.79-40.79-1.47-3.72-3.5-7.47-6.14-11.23-.06-.08-4.65,9.76-13.1,5.29,1.66,9.61-4.51,12.9-13.9,6.83-4.31,9.98-10.38,13.33-17.32,4.02-3.77,15.39-12.97,7.92-15.02,3.69-4.6,10.78-10.05,12.74-16.9,2-3.41,6.64-8.44,8.07-12.35-.34-3.45,6.41-12.61,10.57-13.65-1.66-7.8,9.04-11.69,9.61-14.19.27-10.25,7.61-13.34,6.37-10.85-3.31-3.13,3.68-6.08,3.43-6.39,3.48.25-.04,5.63-1.41,6.39-3.48-5.01,14.5,6.36,7.78,10.85,3.31,1.82,14,7.83,7.7,14.19-.27,1.54,11.69,8.98,10.48,13.65,1.66,2.46,7.8,9.06,9.77,12.35.34,1.58,4.45,10.46,16.23,16.9-2,3.71,7.07,12.68,11.68,15.02-3.69,6.68,8.73,11.87,11.91,17.32-4.02,8.51,7.96,17.85,2.32,13.78-7.04,12.33,5.88,12.73-1.5,13.22-5.08-2.9-3.77-8.32-10.11-12.53-13.83-47.74,22.39-99.76,21.06-107.7,18.16,1.28.55,5.98,1.23,10.98,1.43.05,0,22.17-27.98,22.17-27.98l-37.18-9.43,37.18,9.43s-22.43,27.96-22.17,27.98c24.38,1.09,72.83-3.58,117.2-31.04-3.4-2.44-16.98-12.27-16.98-12.27l11.44-19.5-11.44,19.5s16.93,12.3,16.98,12.27c4.53-2.72,8.15-5.84,7.83-8.12-6.87-34.63-33.46-57.65-51.15-69.49-.04-.03-4.65,7.98-13.52,2.48,1.03,6.98-6.16,7.65-11.38,2.37-.27,7.34-7.58,6.96-12.54,1.85-2.03,6.92-8.49,7.57-11.57,1.54-2.77,8.61-11.32,10.36-13.05,1.47-4.71,7.51-10.21,3.59-10.7-.79-5.59,2.79-9.26,1.82-9.26,1.82,0,0,4.9.86,9.26-1.82,2.9,6.09,8.27,3.39,10.7.79,3.03,4.4,8.5,5.91,13.05-1.47,4.88,4.57,8.34,1.58,11.57-1.54,5.1,4.31,12.1,2.48,12.54-1.85,2.47,1.84,10.84,5.37,11.38-2.37,8.17,5.1,12.76-3,12.73-3.01-9.05-5.97-15.58-8.93-15.58-8.93,0,0,61-20.61,37.29-76.06-55.55,12.06-62.09,65.52-62.09,65.52,0,0-1.76-64.83-86.63-44.92v.03Z"/>
    <ellipse id="Monster_004_Simpleshape_02-4" data-name="Monster 004 Simpleshape 02" class="cls-6" cx="700.54" cy="730.15" rx="33.72" ry="27.01" transform="translate(-108.59 122.54) rotate(-9.28)"/>
    <ellipse id="Monster_004_Simpleshape_01-4" data-name="Monster 004 Simpleshape 01" class="cls-11" cx="705.04" cy="730.72" rx="10.83" ry="10.5" transform="translate(-108.62 123.27) rotate(-9.28)"/>
  </g>
  <g id="Monster_004_Sipleshape_X04">
    <path id="Monster_004_Simpleshape_03-5" data-name="Monster 004 Simpleshape 03" class="cls-7" d="m461.51,490.64c11.98,78.22,71.65,98.7,71.65,98.7,0,0-96.65,38.79-91.54,122.34.64,7.43,26.55,20.82,38.44,29.31-53.9,42.97-47.32,87.61-29.76,99.56.12.09.74-.86.74-.86,0,0-.09,1.27.04,1.36,2.51,1.55,5.23,2.44,8.02,2.57.32.01,1.21-2.1,1.21-2.1,0,0,.2,2.1.42,2.09,12.27-.71,25.27-16.21,27.4-54.52-1.38,26.55-8.4,39.82-11.69,44.39,5.6,8.7,14.27,15.58,24.75,20.57-19.59,21.32-11.31,37.02,3.19,43.64.16.08.74-1.02.74-1.02,0,0,.1,1.39.26,1.46,5.76,2.41,12.38,3.45,18.6,2.89.15-.01.67-1.29.67-1.29,0,0,.16,1.21.36,1.19,14.91-1.79,27.05-12.91,18.44-36.25-17.47.52-42.25-10.62-42.25-10.62,0,0,24.74,11.14,42.25,10.62,2.93.1,7.54.02,10,.04,27.24.26,45.14-11.86,45.14-11.86,0,0-18.05,12.07-45.14,11.86-3.29,23.22,13.82,33.1,30.23,32.82.23,0,.25-1.92.25-1.92,0,0,.94,1.88,1.2,1.87,6.31-.34,12.42-2.17,17.13-5.32.15-.1.02-1.85.02-1.85,0,0,.81,1.28,1,1.14,9.81-7.3,12.47-20.81-4.69-38.61,26.77-14.01,43.35-37.27,38.23-70.87,5.1,34.62-13.2,51.72-17.56,56.14,7.21,8.43,14.32,11.24,20.37,10.19.15-.02-.1-1.71-.1-1.71,0,0,1.16,1.48,1.46,1.4,3.45-.95,6.5-3.17,8.97-6.32.13-.18-.71-1.83-.71-1.83,0,0,1.39.9,1.54.7,9.46-13.59,9.06-41.66-13.93-61.07-1.08-5.53-2.85-11.24-5.39-17.1-.05-.12-7.81,12.58-17.48,4.4.11,13.81-8.29,17-18.8,6.38-7.44,12.96-15.73,16.25-22.51,1.67-7.87,20.64-17.85,8.11-19.56,1.73-7.97,14.01-15.19,15.51-21.56-1.06-5.63,8.49-12.21,9.35-15.4-3.29-5.63,8.18-17.95,11.9-16.75-5.43-11.61,10.85-16.6,10.75-17.82-2.86-14.39,8.3-18.01,5.86-12.91-7.1-4.67,4.43-8.32,3.4-8.71,3.4.32,0,7.33-.68,8.71-3.4-9.24,19.12,6.36,12.32,12.91,7.1-.58,19.98,8.23,12.54,17.82,2.86-.46,16.69,9.1,16.69,16.75,5.43,1.48,11.47,9.34,15.71,15.4,3.29,1.06,6.58,9.78,25.06,21.56,1.06,3.19,10.72,13.49,19.22,19.56-1.73,6.57,13.73,12.42,19.36,22.51-1.67,9.02,13.06,21.87,7.32,18.69-6.69,14.23,11.04,16.24.81,17.59-4.08-2.86-5.93-8.35-16.02-12.86-22.19-64.34,20.39-129.19,6.65-138.54.78,1.49,1.06,7.23,3.08,13.45,4.51.07.02,33.48-34.03,33.48-34.03l-44.61-21.66,44.61,21.66s-33.8,33.95-33.48,34.03c30.3,7.09,91.9,11.63,153.07-16.61-3.75-4.18-18.74-21.03-18.74-21.03l18.32-24.64-18.32,24.64s18.68,21.06,18.74,21.03c6.23-2.77,11.4-6.3,11.47-9.56-1.51-49.96-30.09-88.21-49.82-108.79-.04-.04-7.45,10.09-17.44.38-.14,9.99-9.27,9.28-14.73.71-1.84,10.19-10.91,8-16.08-.29-3.96,9.21-12.17,8.64-14.79-.49-5.23,11.4-16.29,11.9-16.64-.92-7.43,9.42-13.52,2.69-13.23-3.54-7.57,2.62-11.96.43-11.96.43,0,0,5.96,2.32,11.96-.43,2.38,9.17,9.66,6.63,13.23,3.54,2.9,6.85,9.44,10.19,16.64.92,5.18,7.5,10.12,4.12,14.79.49,5.51,7.19,14.64,6.23,16.08.29,2.71,3.13,12.48,9.98,14.73-.71,9.19,8.99,16.58-1.27,16.55-1.31-10.11-10.41-17.68-16.04-17.68-16.04,0,0,80.57-14.87,62.24-97.77-72.01,4.17-91.13,77.38-91.13,77.38,0,0,11.06-91-99.26-82.56v.04Z"/>
    <ellipse id="Monster_004_Simpleshape_02-5" data-name="Monster 004 Simpleshape 02" class="cls-6" cx="577.93" cy="679.2" rx="42.77" ry="38.24"/>
    <ellipse id="Monster_004_Simpleshape_01-5" data-name="Monster 004 Simpleshape 01" class="cls-11" cx="583.45" cy="681.04" rx="13.74" ry="14.87"/>
  </g>
  <g id="Monster_004_Sipleshape_X05">
    <path id="Monster_004_Simpleshape_03-6" data-name="Monster 004 Simpleshape 03" class="cls-1" d="m331.17,634.27c-67.35-5.15-60.59,50.4-60.59,50.4,0,0-11.67-44.69-55.63-47.24-11.19,50.61,38,59.68,38,59.68,0,0-4.62,3.44-10.79,9.79-.02.02,4.5,6.28,10.1.8,1.37,6.52,7.34,2.34,8.99.44.88,3.63,6.45,4.21,9.81-.17,2.85,2.21,5.87,4.27,9.03-.3,4.39,5.66,8.39,3.62,10.16-.56,2.18,1.88,6.63,3.44,8.08-2.16,3.66,1.67,7.3.26,7.3.26,0,0-2.68,1.34-7.3-.26.17,3.81-3.54,7.91-8.08,2.16-.21,7.82-6.96,7.52-10.16.56-1.6,5.57-6.61,5.92-9.03.3-3.16,5.06-8.69,6.4-9.81.17-3.33,5.23-8.9,5.66-8.99-.44-6.1,5.92-10.62-.26-10.64-.23-12.05,12.56-29.49,35.91-30.41,66.41.04,1.99,3.2,4.15,7,5.83.04.02,11.44-12.84,11.44-12.84l-11.18-15.04,11.18,15.04s-9.15,10.28-11.44,12.84c37.34,17.24,74.94,14.47,93.44,10.14.19-.05-20.44-20.77-20.44-20.77l27.23-13.22-27.23,13.22s20.4,20.79,20.44,20.77c3.8-.87,7.3-2.1,8.21-2.75-5.71,3.58-45.29,11.97-84.57-.48-2.75,3.76-6.1,9.93-7.85,13.55.82,2.99,2.05,9.23,10.74,2.49-1.94,8.55,5.9,12.06,11.41,4.09,6.16,12.84,9.73,9.4,13.74,1.02,3.7,12.79,9.99,7.6,11.94,1.06,7.19,14.65,12.51,3.37,13.16-.65,3.7,7.58,8.49,4.99,9.4-2.01,4.67,6.87,10.5,6.87,10.22-3.32,5.86,5.91,11.23,10.45,10.88-1.75,3.99,3.19,13.52,7.34,7.88-4.33.84,1.66,5.12,2.08,5.32,2.08-.24,0-2.47.63-5.32-2.08,3.12,7.91.9,9.4-7.88,4.33-.74,8.31-3.79,8.37-10.88,1.75.74,10.58-6.79,8.31-10.22,3.32-1.94,7.72-5.96,7.19-9.4,2.01-3.89,10.12-8.3,9.2-13.16.65-1.04,3.89-7.13,11.54-11.94-1.06-4.14,8.9-9.2,6.89-13.74-1.02-6.42,6.48-11.54,4.54-11.48-3.89-5.9,4.99-10.64-2.76-10.67-2.69-1.55,3.58-2.63,7.06-3.29,10.44-14.03,11.85-14.28,28.99-8.5,37.28.09.12.94-.43.94-.43,0,0-.52,1.01-.44,1.12,1.51,1.92,3.37,3.28,5.47,3.86.18.05.89-.86.89-.86,0,0-.15,1.03-.06,1.05,3.69.64,8.03-1.08,12.43-6.22-2.66-2.7-13.83-13.14-10.72-34.27-3.12,20.51,7,34.71,23.34,43.26-10.47,10.87-8.85,19.11-2.86,23.57.11.09.61-.7.61-.7,0,0-.08,1.07.01,1.13,2.87,1.92,6.61,3.04,10.46,3.25.15,0,.73-1.14.73-1.14,0,0,.01,1.17.15,1.17,10.02.17,20.47-5.86,18.46-20.04-16.53.13-27.55-7.24-27.55-7.24,0,0,10.93,7.4,27.55,7.24,1.5-.01,4.31.03,6.1-.03,10.69.31,25.79-6.48,25.79-6.48,0,0-15.13,6.8-25.79,6.48-5.26,14.25,2.15,21.04,11.25,22.13.12.01.22-.72.22-.72,0,0,.31.78.41.79,3.8.34,7.84-.29,11.36-1.76.1-.04.16-.89.16-.89,0,0,.35.67.45.62,8.86-4.05,13.91-13.63,1.95-26.64,6.4-3.04,11.69-7.24,15.11-12.55-2.01-2.79-6.29-10.89-7.13-27.1,1.3,23.39,9.24,32.85,16.73,33.28.13,0,.25-1.27.25-1.27,0,0,.54,1.29.74,1.28,1.7-.08,3.36-.62,4.9-1.57.08-.05.03-.83.03-.83,0,0,.38.58.45.52,10.72-7.3,14.74-34.54-18.17-60.77,7.26-5.19,23.08-13.36,23.47-17.89,3.12-51-55.88-74.68-55.88-74.68,0,0,36.42-12.5,43.74-60.25v-.03Z"/>
    <ellipse id="Monster_004_Simpleshape_02-6" data-name="Monster 004 Simpleshape 02" class="cls-6" cx="260.11" cy="749.41" rx="26.11" ry="23.35"/>
    <path id="Monster_004_Simpleshape_01-6" data-name="Monster 004 Simpleshape 01" class="cls-11" d="m256.74,741.45c4.63,0,8.39,4.06,8.39,9.08,0,5.01-3.76,9.08-8.39,9.08s-8.39-4.06-8.39-9.08,3.76-9.08,8.39-9.08Z"/>
  </g>
  <g id="Monster_004_Sipleshape_X06">
    <path id="Monster_004_Simpleshape_03-7" data-name="Monster 004 Simpleshape 03" class="cls-5" d="m487.83,523.55c-100.53-7.69-90.45,75.23-90.45,75.23,0,0-17.42-66.71-83.04-70.51-16.7,75.54,56.72,89.09,56.72,89.09,0,0-6.9,5.13-16.11,14.62-.03.03,6.71,9.38,15.08,1.19,2.05,9.74,10.95,3.5,13.42.65,1.31,5.42,9.63,6.29,14.65-.26,4.26,3.3,8.76,6.38,13.48-.45,6.56,8.45,12.52,5.4,15.16-.84,3.26,2.81,9.89,5.13,12.06-3.23,5.47,2.5,10.9.39,10.9.39,0,0-4,2-10.9-.39.26,5.68-5.29,11.81-12.06,3.23-.32,11.68-10.39,11.23-15.16.84-2.39,8.32-9.87,8.84-13.48.45-4.71,7.55-12.97,9.55-14.65.26-4.97,7.81-13.29,8.45-13.42-.65-9.1,8.84-15.85-.39-15.89-.35-17.98,18.75-44.02,53.6-45.4,99.13.06,2.97,4.77,6.19,10.45,8.71.06.03,17.08-19.16,17.08-19.16l-16.69-22.45,16.69,22.45s-13.66,15.35-17.08,19.16c55.74,25.74,111.87,21.6,139.48,15.14.29-.07-30.51-31.01-30.51-31.01l40.65-19.74-40.65,19.74s30.45,31.03,30.51,31.01c5.67-1.3,10.9-3.14,12.26-4.11-8.52,5.35-67.61,17.87-126.24-.71-4.11,5.62-9.11,14.82-11.72,20.22,1.23,4.46,3.06,13.78,16.03,3.72-2.9,12.77,8.81,18,17.03,6.1,9.19,19.16,14.52,14.03,20.51,1.52,5.53,19.09,14.91,11.35,17.82,1.58,10.74,21.87,18.68,5.03,19.65-.97,5.52,11.32,12.68,7.45,14.03-3,6.97,10.26,15.68,10.26,15.26-4.95,8.74,8.82,16.77,15.6,16.24-2.61,5.96,4.76,20.18,10.95,11.76-6.47,1.26,2.48,7.65,3.1,7.94,3.1-.36,0-3.68.94-7.94-3.1,4.65,11.81,1.35,14.03-11.76,6.47-1.11,12.41-5.66,12.5-16.24,2.61,1.1,15.79-10.13,12.4-15.26,4.95-2.9,11.52-8.9,10.74-14.03,3-5.81,15.1-12.39,13.74-19.65.97-1.55,5.81-10.65,17.23-17.82-1.58-6.18,13.29-13.73,10.29-20.51-1.52-9.58,9.68-17.23,6.77-17.13-5.81-8.81,7.45-15.88-4.12-15.93-4.01-2.31,5.34-3.93,10.54-4.91,15.58-20.95,17.69-21.31,43.27-12.69,55.65.13.18,1.4-.64,1.4-.64,0,0-.77,1.51-.65,1.67,2.25,2.87,5.03,4.89,8.17,5.76.27.07,1.33-1.28,1.33-1.28,0,0-.23,1.54-.09,1.56,5.51.95,11.99-1.61,18.56-9.29-3.97-4.03-20.65-19.61-16-51.16-4.66,30.62,10.45,51.81,34.84,64.58-15.63,16.22-13.21,28.53-4.27,35.18.17.13.91-1.04.91-1.04,0,0-.12,1.6.02,1.69,4.29,2.87,9.86,4.54,15.61,4.85.23.01,1.09-1.7,1.09-1.7,0,0,.02,1.75.23,1.75,14.96.25,30.55-8.75,27.55-29.91-24.68.19-41.13-10.81-41.13-10.81,0,0,16.31,11.05,41.13,10.81,2.24-.02,6.44.05,9.11-.04,15.96.47,38.5-9.68,38.5-9.68,0,0-22.58,10.15-38.5,9.68-7.85,21.27,3.21,31.4,16.8,33.03.18.02.33-1.08.33-1.08,0,0,.47,1.17.61,1.18,5.67.51,11.7-.43,16.95-2.63.15-.06.24-1.33.24-1.33,0,0,.52,1,.67.93,13.22-6.04,20.76-20.34,2.91-39.77,9.55-4.54,17.45-10.81,22.55-18.74-3-4.16-9.39-16.26-10.65-40.45,1.94,34.91,13.79,49.03,24.97,49.68.2.01.38-1.9.38-1.9,0,0,.81,1.92,1.1,1.91,2.54-.12,5.02-.93,7.31-2.34.12-.08.04-1.24.04-1.24,0,0,.56.86.67.78,16-10.89,22-51.56-27.12-90.72,10.84-7.74,34.45-19.94,35.03-26.71,4.65-76.13-83.42-111.48-83.42-111.48,0,0,54.37-18.66,65.29-89.94v-.04Z"/>
    <ellipse id="Monster_004_Simpleshape_02-7" data-name="Monster 004 Simpleshape 02" class="cls-6" cx="381.76" cy="695.42" rx="38.97" ry="34.85"/>
    <ellipse id="Monster_004_Simpleshape_01-7" data-name="Monster 004 Simpleshape 01" class="cls-11" cx="376.73" cy="697.09" rx="12.52" ry="13.55"/>
  </g>
</svg>