<?xml version="1.0" encoding="UTF-8"?>
<svg id="Monster" xmlns="http://www.w3.org/2000/svg" xmlns:xlink="http://www.w3.org/1999/xlink" viewBox="0 0 1000 1000">
  <defs>
    <style>
      .cls-1 {
        fill: url(#Unbenannter_Verlauf_2);
      }

      .cls-1, .cls-2, .cls-3, .cls-4 {
        stroke: #000;
        stroke-miterlimit: 10;
        stroke-width: 5px;
      }

      .cls-2 {
        fill: #3fc6ff;
      }

      .cls-3 {
        fill: #ff1f91;
      }

      .cls-4 {
        fill: url(#Unbenannter_Verlauf_7);
      }
    </style>
    <linearGradient id="Unbenannter_Verlauf_7" data-name="Unbenannter Verlauf 7" x1="512.93" y1="1828.97" x2="455.9" y2="1610.11" gradientTransform="translate(202.52 2078.98) scale(1 -1)" gradientUnits="userSpaceOnUse">
      <stop offset=".17" stop-color="#00946d"/>
      <stop offset=".33" stop-color="#226b53"/>
      <stop offset=".55" stop-color="#4a3d37"/>
      <stop offset=".74" stop-color="#671b22"/>
      <stop offset=".89" stop-color="#780715"/>
      <stop offset="1" stop-color="#7f0011"/>
    </linearGradient>
    <linearGradient id="Unbenannter_Verlauf_2" data-name="Unbenannter Verlauf 2" x1="523.92" y1="1827.1" x2="468.91" y2="1616.01" gradientTransform="translate(202.52 2078.98) scale(1 -1)" gradientUnits="userSpaceOnUse">
      <stop offset=".17" stop-color="#92ff6a"/>
      <stop offset=".2" stop-color="#97ef6a"/>
      <stop offset=".38" stop-color="#afa76d"/>
      <stop offset=".54" stop-color="#c46c70"/>
      <stop offset=".69" stop-color="#d43d72"/>
      <stop offset=".82" stop-color="#df1b73"/>
      <stop offset=".93" stop-color="#e60774"/>
      <stop offset="1" stop-color="#e90075"/>
    </linearGradient>
  </defs>
  <g id="Monster_008_Var" data-name="Monster 008 Var">
    <g id="Monster_008_SimpleShape" data-name="Monster 008 SimpleShape">
      <path id="Monster_008_SimpleShape_04" data-name="Monster 008 SimpleShape 04" class="cls-4" d="m585.31,297.8c65.34-5.05,33.49,98.44-3.06,41.22-2.61,1.86-10.45,5.16-12.37,6.03-4.21,11.67-12.92,47.91-12.92,47.91,0,0,50.4,16.83,67.31,22.09-64.77,41.03,76.76,96,39.48,11.61,17.36,4.56,69.99,16.02,69.99,16.02l13.07-6.09s-.93-34.68.95-41.47c41.67,61.48,97.67-73.75,12.75-49.15,6.47-18.66,20.64-66.4,20.64-66.4l-59.63-25.92s-5.87,2.53-13.07,6.09c16.59,65.2-84.77,30.55-33.85-9.89-10.84-2-56.72-22.84-56.72-22.84l-11.16,6.25s-16.1,48.39-21.41,64.53h0Z"/>
      <path id="Monster_008_SimpleShape_03" data-name="Monster 008 SimpleShape 03" class="cls-2" d="m664.39,219.82l-34.24-10.8,12.52-40.02,9.62,2.44-10.15,34.54,10.37,2.65s-2.24-27.94,11.7-20.59c15.98,8.44-11.7,20.59-11.7,20.59l48.63,12.45-59-15.11,10.15-34.54,59.27,15.07-12.21,40.5-26.89-4.54-10.97,63.79,54.19,13.8,23.8-61.93-27.54-9.49,11.24-42.12s3.42.82,8.69,2.1c.32.08-10.6,34.42-10.27,34.5.01,0,13.95,4,13.95,4,0,0-3.74-24.6,8.14-20.47,17.77,6.18-8.14,20.47-8.14,20.47l44.32,12.69-58.27-16.69,10.27-34.5s53.52,13.28,55.47,15.27c2.65,2.72-9.58,43.14-9.58,43.14l-26.44-6.67-30.21,70.26-73.71-18.9,17.02-71.88h-.03Z"/>
      <path id="Monster_008_SimpleShape_02" data-name="Monster 008 SimpleShape 02" class="cls-1" d="m598.38,291.7c68.64-4.56,27.12,99.01-15.43,47.25-4.21,11.67-12.92,47.91-12.92,47.91,0,0,50.4,16.83,67.31,22.09-64.77,41.03,76.76,96,39.48,11.61,17.36,4.56,69.99,16.02,69.99,16.02,0,0,10.71-35.62,14.02-47.56,41.67,61.48,97.67-73.75,12.75-49.15,6.47-18.66,20.64-66.4,20.64-66.4,0,0-51.63-13.8-72.7-19.82,16.59,65.2-84.77,30.55-33.85-9.89-18.03-3.33-67.88-16.59-67.88-16.59,0,0-16.1,48.39-21.41,64.53h0Z"/>
      <path id="Monster_008_SimpleShape_01" data-name="Monster 008 SimpleShape 01" class="cls-3" d="m649.04,312.42c.95,23.11,27.51,2.93,58.58,1.59,33.19-1.43,50.37,22.31,61.45,6.03-10.31,16.28-30.16-2.82-37.38-2.82,6.74,7.3,24.96,28.38,7.07,58.44-8.1,13.62-29.33,38.9-64.13,20.91-27.27-22.71,27.22-48.52,4.23-77.25-6.72,1.66-29.83,12.08-29.83-6.9h.01Z"/>
    </g>
  </g>
</svg>