<?xml version="1.0" encoding="UTF-8"?>
<svg id="Monster" xmlns="http://www.w3.org/2000/svg" xmlns:xlink="http://www.w3.org/1999/xlink" viewBox="0 0 1000 1000">
  <defs>
    <style>
      .cls-1 {
        fill: #ff3f4f;
      }

      .cls-1, .cls-2, .cls-3, .cls-4, .cls-5 {
        stroke: #000;
        stroke-miterlimit: 10;
        stroke-width: 7px;
      }

      .cls-2 {
        fill: #fff;
      }

      .cls-3 {
        fill: url(#Unbenannter_Verlauf_11);
      }

      .cls-4 {
        fill: url(#Unbenannter_Verlauf_10);
      }

      .cls-5 {
        fill: url(#Unbenannter_Verlauf_12);
      }
    </style>
    <linearGradient id="Unbenannter_Verlauf_12" data-name="Unbenannter Verlauf 12" x1="550.09" y1="1426.38" x2="550.09" y2="1172.88" gradientTransform="translate(202.52 2078.98) scale(1 -1)" gradientUnits="userSpaceOnUse">
      <stop offset="0" stop-color="#0074ff"/>
      <stop offset=".21" stop-color="#4253d7"/>
      <stop offset=".41" stop-color="#7d35b4"/>
      <stop offset=".6" stop-color="#ab1e99"/>
      <stop offset=".77" stop-color="#cd0d85"/>
      <stop offset=".91" stop-color="#e10379"/>
      <stop offset="1" stop-color="#e90075"/>
    </linearGradient>
    <radialGradient id="Unbenannter_Verlauf_11" data-name="Unbenannter Verlauf 11" cx="497" cy="1335.8" fx="497" fy="1335.8" r="141.61" gradientTransform="translate(202.52 2078.98) scale(1 -1)" gradientUnits="userSpaceOnUse">
      <stop offset="0" stop-color="#7cff74"/>
      <stop offset=".11" stop-color="#7cf672"/>
      <stop offset=".28" stop-color="#7fe06e"/>
      <stop offset=".49" stop-color="#83bb67"/>
      <stop offset=".73" stop-color="#88875e"/>
      <stop offset=".99" stop-color="#8f4653"/>
      <stop offset="1" stop-color="#904553"/>
    </radialGradient>
    <linearGradient id="Unbenannter_Verlauf_10" data-name="Unbenannter Verlauf 10" x1="434" y1="1174.98" x2="532.43" y2="1280.53" gradientTransform="translate(202.52 2078.98) scale(1 -1)" gradientUnits="userSpaceOnUse">
      <stop offset="0" stop-color="#88ff15"/>
      <stop offset="1" stop-color="#e90027"/>
    </linearGradient>
  </defs>
  <g id="Monster_004_Var" data-name="Monster 004 Var">
    <g id="Monster_004b_SimpleShape" data-name="Monster 004b SimpleShape">
      <path id="Monster_004b_SimpleShape_06" data-name="Monster 004b SimpleShape 06" class="cls-5" d="m721.32,868.82l-4.45,11.23s8.63,11.87,10.45,15.48c2.82,5.6,8.48,18.52,5.23,23.61-4.75,7.43-29.74,16.58-35.23,9.68-4.33-5.44,10.6-25.54,10.6-25.54,0,0-9.5-9.65-10.4-12.98-1.76-6.51,3.1-24.77,3.1-24.77l36.22-14.17s4.53-140.47,3.65-182.09c-71.31-12.38-67.55-61.94-32.71-36.19.65,21.03,45.42,24.26,50.13,16.16-4.71,8.1-49.74,1.13-49.26-17.03,5.1-7.62,14.03-26.71,37.26-19.45,20.92,6.54,13.86,25.69,12.58,36.19,30.77,1.48,28.43,17.74-12.39,21.29-.97,16.26-2.27,178.38-2.27,178.38l37.76-14.77s25.33,11.68,27.62,19.87c1.33,4.76-7.74,18.19-7.74,18.19,0,0,20.49,7.49,20.17,13.56-.48,9.24-26.47,14.07-35.27,11.22-5.85-1.89-11.26-15.22-10.45-22.26.48-4.21,8.78-13.47,8.78-13.47l-20-12.66-43.35,20.52h-.03Z"/>
      <path id="Monster_004b_SimpleShape_05" data-name="Monster 004b SimpleShape 05" class="cls-3" d="m686.85,643.03c-82.71,5.47-82.19,89.34-82.19,89.34,0,0-28.65-4.9-34.84-16.77-12.13-30.97-22.99-7.49-26.06-2.06-4.35,7.69-4,34.91,20.9,9.81,2.32,22.71,40,34.06,40,34.06,0,0,6.41,26.05,17.29,43.35-5.94,10.84,4.39,31.74-.48,37.5-7.78-2.66-24.29-1.89-32.97-12.32-4.69-5.39-6.41-27.84-6.41-27.84l-4.52,12.46-3.55-12.61-3.68,14.15-2.74-12.81-5,17.45s6.46,22.69,13.16,23.74c21.42,3.35,31.23,21.68,61.94,23.23,5.16-18.06,2.56-37.15,2.56-37.15,0,0,43.61,56.25,103.24,35.08,45.81-16.26,53.16-55.74,61.53-72.05,4.02,10.11,13.83,19.4,17.95,24.56,19.87-12.39,18.06-32.77,33.29-61.42,2.66-5.01-.26-22.71-.26-22.71l-12.9-16,.77,12.65-11.1-9.55,3.61,17.29s-7.42-7.48-11.87-10.97c2.19,6.32,13.73,23.55,12.65,33.68-.77,7.23-16.26,20.65-14.97,27.1-2.84.52-1.81-24.77-15.23-28.9-1.81-16-9.16-40-13.94-53.68,11.35-19.23,14.06-44.39,7.1-57.16,42.54-27.75-1.12-27.6-9.29-20.52-15.62,13.55-5.17,17.36-2.32,23.61s-.77,23.23-8.13,30.97c-2.71-2.71-9.12-11.34-9.12-11.34,0,0-62.36,11.21-84.43-24.19v.02Z"/>
      <path id="Monster_004b_SimpleShape_04" data-name="Monster 004b SimpleShape 04" class="cls-1" d="m641.88,792.65c36.86,60.04,110.66-32.86,133.37-17.89,43.35,81.03-106.32,108.9-133.37,17.89h0Z"/>
      <path id="Monster_004b_SimpleShape_03" data-name="Monster 004b SimpleShape 03" class="cls-2" d="m677.19,692.3c-71.53,10.18-42.68,108.31,13.55,92.9,19.69-5.4,25.94-33.29,25.94-33.29,0,0,9.48,24.89,28.26,17.42,23.43-9.32,12.29-57.31-10.84-51.1-5.33,1.43-10.99,5.58-13.55,7.79.19-2.27,12.82.05,6.63,6.87-3.52,3.87-10.1-2.74-6.44-7.06-2.35,2.84-3.68,5.95-3.68,5.95,0,0-.48-4.16-1.91-10.58,4.3,10.39-11.27,18.43-15.96,7.36-4.39-10.35,13.04-14.58,15.96-7.36-3.43-12.87-12.82-32.48-37.96-28.9h0Z"/>
      <path id="Monster_004b_SimpleShape_01" data-name="Monster 004b SimpleShape 01" class="cls-4" d="m721.32,806.88c-37.16,3.48-63.1,46.06-60.49,54.9-28.16-26.65-76.53,23.95-22.74,53.87,53.79,29.92,60-55.74,116.9-87.87,7.02-3.96,4.86-24.52-33.68-20.9h.01Z"/>
    </g>
  </g>
</svg>