<?xml version="1.0" encoding="UTF-8"?>
<svg id="Monster" xmlns="http://www.w3.org/2000/svg" xmlns:xlink="http://www.w3.org/1999/xlink" viewBox="0 0 1000 1000">
  <defs>
    <style>
      .cls-1 {
        fill: #ff3f4f;
      }

      .cls-1, .cls-2, .cls-3, .cls-4, .cls-5 {
        stroke: #000;
        stroke-miterlimit: 10;
        stroke-width: 7px;
      }

      .cls-2 {
        fill: #fff;
      }

      .cls-3 {
        fill: url(#Unbenannter_Verlauf_11);
      }

      .cls-4 {
        fill: url(#Unbenannter_Verlauf_10);
      }

      .cls-5 {
        fill: url(#Unbenannter_Verlauf_12);
      }
    </style>
    <linearGradient id="Unbenannter_Verlauf_12" data-name="Unbenannter Verlauf 12" x1="193.62" y1="1438.21" x2="193.62" y2="1199.32" gradientTransform="translate(-405.68 1860.91) rotate(28.13) scale(1 -1)" gradientUnits="userSpaceOnUse">
      <stop offset="0" stop-color="#0074ff"/>
      <stop offset=".21" stop-color="#4253d7"/>
      <stop offset=".41" stop-color="#7d35b4"/>
      <stop offset=".6" stop-color="#ab1e99"/>
      <stop offset=".77" stop-color="#cd0d85"/>
      <stop offset=".91" stop-color="#e10379"/>
      <stop offset="1" stop-color="#e90075"/>
    </linearGradient>
    <radialGradient id="Unbenannter_Verlauf_11" data-name="Unbenannter Verlauf 11" cx="143.59" cy="1352.85" fx="143.59" fy="1352.85" r="133.45" gradientTransform="translate(-405.68 1860.91) rotate(28.13) scale(1 -1)" gradientUnits="userSpaceOnUse">
      <stop offset="0" stop-color="#7cff74"/>
      <stop offset=".11" stop-color="#7cf672"/>
      <stop offset=".28" stop-color="#7fe06e"/>
      <stop offset=".49" stop-color="#83bb67"/>
      <stop offset=".73" stop-color="#88875e"/>
      <stop offset=".99" stop-color="#8f4653"/>
      <stop offset="1" stop-color="#904553"/>
    </radialGradient>
    <linearGradient id="Unbenannter_Verlauf_10" data-name="Unbenannter Verlauf 10" x1="84.22" y1="1201.29" x2="176.98" y2="1300.76" gradientTransform="translate(-405.68 1860.91) rotate(28.13) scale(1 -1)" gradientUnits="userSpaceOnUse">
      <stop offset="0" stop-color="#88ff15"/>
      <stop offset="1" stop-color="#e90027"/>
    </linearGradient>
  </defs>
  <g id="Monster_001_Var" data-name="Monster 001 Var">
    <g id="Monster_001a_Simpleshape" data-name="Monster 001a Simpleshape">
      <path id="Monster_001a_SimpleShape_06" data-name="Monster 001a SimpleShape 06" class="cls-5" d="m321.08,849.66l-8.69,7.36s1.9,13.7,1.81,17.51c-.14,5.91-1.18,19.16-6.14,21.95-7.25,4.06-32.08.57-33.58-7.61-1.18-6.44,20.16-16.52,20.16-16.52,0,0-3.61-12.24-2.88-15.41,1.43-6.19,13.58-19.21,13.58-19.21l36.4,4.32s66.18-114.73,83.94-149.71c-53.76-41.97-28.62-81.49-11.11-44.61-8.8,17.77,26.97,40.34,34.48,35.7-7.51,4.64-41.84-21.16-33.37-36.04,7.62-4.07,23.53-15.96,39.61.39,14.48,14.73.1,27.51-5.62,35.67,24.91,14.9,15.75,27.38-19.76,12.19-8.03,13.08-81.14,147.24-81.14,147.24l37.94,4.5s15.86,20.96,14.13,28.79c-1.01,4.55-14.51,11.68-14.51,11.68,0,0,13.7,15.33,10.74,20.23-4.5,7.47-28.25-.07-34.3-6.35-4.02-4.17-2.6-17.65,1.21-23.14,2.27-3.29,13.28-7.29,13.28-7.29l-11-19.41-45.14-2.21h-.02Z"/>
      <path id="Monster_001a_SimpleShape_05" data-name="Monster 001a SimpleShape 05" class="cls-3" d="m392.75,646.69c-71.17-32.2-108,37.73-108,37.73,0,0-21.63-16.8-21.5-29.42,3.68-31.13-15.78-16.44-20.74-13.29-7.03,4.46-18.84,27.24,13.01,17.44-8.16,19.9,18.11,46.08,18.11,46.08,0,0-6.25,24.5-4.89,43.71-9.75,6.37-10.45,28.33-17.06,30.95-5.28-5.67-19.35-12.36-21.93-24.89-1.5-6.56,7.04-25.99,7.04-25.99l-9.29,8.35,2.65-12.06-9.35,10.12,3.41-11.86-11.91,12.28s-4.71,21.73.39,25.58c16.31,12.3,16.32,31.89,41.16,46.83,12.31-12.72,18.63-29.74,18.63-29.74,0,0,11.25,66.13,70.21,75.03,45.3,6.84,68.95-22.7,83.15-32.54-1.15,10.19,2.87,22.27,4.01,28.39,22.02-1.47,29.57-19.21,54.96-36.25,4.44-2.98,9.87-18.99,9.87-18.99l-3.61-19.03-4.98,10.86-4.98-12.87-4.68,15.97s-2.84-9.51-4.99-14.39c-.99,6.23.95,25.67-4.45,33.61-3.85,5.67-22.69,9.94-24.48,15.87-2.59-.83,9.5-21.39.18-30.79,5.6-14.1,10.16-37.31,12.27-50.81,17.98-10.94,31.41-30.64,31.3-44.35,47.68-4.16,11.33-23.44,1.4-21.18-19,4.32-12.01,12.13-12.42,18.59-.41,6.46-10.96,18.96-20.52,22.13-1.05-3.46-2.54-13.48-2.54-13.48,0,0-56.81-18.39-59.42-57.62v.02Z"/>
      <path id="Monster_001a_SimpleShape_04" data-name="Monster 001a SimpleShape 04" class="cls-1" d="m288.9,751.06c3.96,66.28,106.57,21.86,118.79,44.39.02,86.6-136.75,43.27-118.79-44.39h0Z"/>
      <path id="Monster_001a_SimpleShape_03" data-name="Monster 001a SimpleShape 03" class="cls-2" d="m362.84,683.35c-63.97-23.32-83.59,71.05-30.02,83.23,18.76,4.26,36.35-16.14,36.35-16.14,0,0-3.18,24.9,15.75,27.03,23.61,2.66,35.68-42.17,13.7-47.28-5.07-1.18-11.61-.25-14.72.45,1.17-1.8,10.63,5.74,2.46,8.66-4.64,1.65-7.18-6.76-2.22-8.73-3.21,1.32-5.7,3.31-5.7,3.31,0,0,1.45-3.67,3.11-9.64-1.04,10.55-17.56,10.31-16.53-.97.95-10.55,17.32-6.32,16.53.97,2.87-12.22,3.78-32.69-18.71-40.88h0Z"/>
      <path id="Monster_001a_SimpleShape_01" data-name="Monster 001a SimpleShape 01" class="cls-4" d="m348.6,798.18c-32.43-13.62-72.91,10.24-74.67,18.75-11.56-34.66-74.24-14.1-42.83,34.67,31.41,48.77,74.63-19.67,136.2-21.09,7.59-.17,14.93-18.22-18.7-32.33h0Z"/>
    </g>
  </g>
</svg>